<svg xmlns="http://www.w3.org/2000/svg" version="1.1" xmlns:xlink="http://www.w3.org/1999/xlink" width="1000" height="1000"><metadata><rdf:RDF xmlns:rdf="http://www.w3.org/1999/02/22-rdf-syntax-ns#" xmlns:dc="http://purl.org/dc/elements/1.1/"><rdf:Description><dc:creator>RealFaviconGenerator</dc:creator><dc:source>https://realfavicongenerator.net</dc:source></rdf:Description></rdf:RDF></metadata><g clip-path="url(#SvgjsClipPath1134)"><rect width="1000" height="1000" fill="#000000"></rect><g transform="matrix(5,0,0,5,0,0)"><svg xmlns="http://www.w3.org/2000/svg" version="1.1" xmlns:xlink="http://www.w3.org/1999/xlink" viewBox="0 0 200 200" width="200" height="200"><rect width="200" height="200" fill="url('#gradient')"></rect><defs><linearGradient id="gradient" gradientTransform="rotate(0 0.5 0.5)"><stop offset="0%" stop-color="#000000"></stop><stop offset="100%" stop-color="#000000"></stop></linearGradient><clipPath id="SvgjsClipPath1134"><rect width="1000" height="1000" x="0" y="0" rx="350" ry="350"></rect></clipPath></defs><g><g fill="#ffffff" transform="matrix(2.7481674344081712,0,0,2.7481674344081712,32.063622794798576,120.35240594748144)" stroke="#000000" stroke-width="0"><path d="M6.46-2.97L6.46-2.97Q6.46-3.39 6.02-3.64Q5.58-3.90 4.35-4.17Q3.12-4.44 2.31-4.89Q1.51-5.33 1.09-5.97Q0.67-6.60 0.67-7.42L0.67-7.42Q0.67-8.88 1.88-9.82Q3.08-10.76 5.02-10.76L5.02-10.76Q7.11-10.76 8.38-9.81Q9.65-8.87 9.65-7.32L9.65-7.32L6.35-7.32Q6.35-8.59 5.01-8.59L5.01-8.59Q4.49-8.59 4.14-8.31Q3.79-8.02 3.79-7.59L3.79-7.59Q3.79-7.15 4.22-6.88Q4.65-6.60 5.59-6.43Q6.53-6.25 7.25-6.01L7.25-6.01Q9.63-5.19 9.63-3.07L9.63-3.07Q9.63-1.62 8.34-0.71Q7.06 0.20 5.02 0.20L5.02 0.20Q3.66 0.20 2.60-0.29Q1.53-0.78 0.94-1.62Q0.34-2.46 0.34-3.39L0.34-3.39L3.42-3.39Q3.44-2.66 3.91-2.32Q4.38-1.98 5.11-1.98L5.11-1.98Q5.78-1.98 6.12-2.26Q6.46-2.53 6.46-2.97ZM16.28 0.20L16.28 0.20Q13.85 0.20 12.34-1.25Q10.84-2.71 10.84-5.03L10.84-5.03L10.84-5.30Q10.84-6.92 11.44-8.16Q12.04-9.40 13.19-10.08Q14.35-10.76 15.93-10.76L15.93-10.76Q18.15-10.76 19.44-9.38Q20.73-8.00 20.73-5.53L20.73-5.53L20.73-4.25L14.19-4.25Q14.37-3.36 14.96-2.85Q15.56-2.34 16.50-2.34L16.50-2.34Q18.07-2.34 18.95-3.44L18.95-3.44L20.45-1.66Q19.83-0.81 18.71-0.31Q17.58 0.20 16.28 0.20ZM15.91-8.22L15.91-8.22Q14.46-8.22 14.19-6.31L14.19-6.31L17.51-6.31L17.51-6.56Q17.53-7.35 17.11-7.79Q16.69-8.22 15.91-8.22ZM22.60-13.19L25.89-13.19L25.89-10.57L27.63-10.57L27.63-8.28L25.89-8.28L25.89-3.45Q25.89-2.85 26.10-2.62Q26.32-2.38 26.95-2.38L26.95-2.38Q27.44-2.38 27.77-2.44L27.77-2.44L27.77-0.09Q26.88 0.20 25.92 0.20L25.92 0.20Q24.22 0.20 23.41-0.61Q22.60-1.41 22.60-3.04L22.60-3.04L22.60-8.28L21.25-8.28L21.25-10.57L22.60-10.57L22.60-13.19ZM35.47 0L33.16-3.94L32.24-3.01L32.24 0L28.95 0L28.95-15.01L32.24-15.01L32.24-7.04L32.57-7.48L35.05-10.57L38.99-10.57L35.29-6.22L39.24 0L35.47 0ZM49.10 0L45.81 0Q45.63-0.32 45.50-0.95L45.50-0.95Q44.59 0.20 42.96 0.20L42.96 0.20Q41.46 0.20 40.42-0.71Q39.38-1.61 39.38-2.98L39.38-2.98Q39.38-4.70 40.64-5.58Q41.91-6.46 44.34-6.46L44.34-6.46L45.35-6.46L45.35-7.01Q45.35-8.47 44.09-8.47L44.09-8.47Q42.92-8.47 42.92-7.31L42.92-7.31L39.63-7.31Q39.63-8.85 40.93-9.80Q42.24-10.76 44.26-10.76Q46.28-10.76 47.45-9.78Q48.62-8.79 48.65-7.07L48.65-7.07L48.65-2.39Q48.67-0.94 49.10-0.17L49.10-0.17L49.10 0ZM43.75-2.15L43.75-2.15Q44.37-2.15 44.77-2.41Q45.18-2.68 45.35-3.01L45.35-3.01L45.35-4.70L44.39-4.70Q42.68-4.70 42.68-3.15L42.68-3.15Q42.68-2.71 42.98-2.43Q43.28-2.15 43.75-2.15Z"></path></g></g></svg></g></g></svg>